<?xml version="1.0" encoding="UTF-8" standalone="no"?>
<svg viewBox="0 0 16 16" xmlns="http://www.w3.org/2000/svg" xmlns:xlink="http://www.w3.org/1999/xlink" xmlns:sketch="http://www.bohemiancoding.com/sketch/ns">
    <defs></defs>
    <g id="Page-1" stroke="none" stroke-width="1" fill="none" fill-rule="evenodd" sketch:type="MSPage">
        <g id="16" sketch:type="MSArtboardGroup">
            <g id="Oval-1-+-path3013-copy" sketch:type="MSLayerGroup">
                <circle id="Oval-1" fill="#960000" sketch:type="MSShapeGroup" cx="8" cy="8" r="8"></circle>
                <path d="M5.28704567,0.301960816 C4.90351455,2.11111215 4.517287,3.93980865 4.5,5.79543667 C4.57824378,6.89501711 4.92206951,7.9850569 5.68349738,8.80736184 C6.18843143,9.56728612 7.11485293,9.95786203 7.54089732,10.7607 C7.76220792,11.1845645 7.58951222,11.7121616 7.6446984,12.1797631 C7.62142075,13.7582376 7.69650368,15.3398843 7.59658316,16.9158866 C7.49479785,17.3446556 7.31640539,17.7286456 6.97306597,18.0162193 C6.56345408,18.3558878 6.06249252,18.5403725 5.53061698,18.572498 C5.20941586,18.5481641 4.56445485,18.8086485 5.22926546,18.805832 C6.98288479,18.8959994 8.73708523,18.9351303 10.4924284,18.8739023 C11.0317206,19.0306284 11.1221467,18.5115408 10.5487396,18.5397318 C9.93363134,18.4008948 9.28430821,18.3576856 8.75664903,17.9786092 C8.28767317,17.7151358 8.24711471,17.2108995 8.27019802,16.699183 C8.29442879,14.8909408 8.15244178,13.0703958 8.36214689,11.2723564 C8.51027126,10.7439045 8.71734138,10.1922844 9.25656317,9.95730045 C10.553026,8.88842955 11.6799254,7.28787033 11.4760175,5.52545455 C11.4018239,4.05677981 11.1093495,2.60591879 10.8187132,1.16719038 C10.7205517,0.774058282 10.7142648,0.139319576 10.1712363,0.146404159 C9.17930918,-0.0175068333 8.1633385,-0.0149029716 7.16154494,0.0174290571 C6.51985051,0.0153410099 5.90885382,0.189733045 5.28704567,0.301960816 L5.28704567,0.301960816 Z" id="path3013-copy" stroke="#FFFFFF" stroke-width="1.5184684" fill="#FFFFFF" sketch:type="MSShapeGroup"></path>
            </g>
        </g>
    </g>
</svg>
